<svg xmlns:xlink="http://www.w3.org/1999/xlink" xmlns="http://www.w3.org/2000/svg" fill="none" viewBox="0 0 536 100" class="h-5" data-astro-cid-b3cex4rw="true" width="536"  height="100" >
  <g fill="oklch(1 0 0)" clip-path="url(#a)">
    <path d="M179.376 79.03h-6.579V26.698h-18.682v-5.723h44.43v5.723h-19.169V79.03ZM208.098 79.03V20.975h35.658v5.723H214.19v18.725h28.185v6.133H214.19v21.75h29.566v5.724h-35.658ZM274.591 74.696c7.094 0 11.318-4.879 12.671-14.636h6.092c-1.678 13.628-7.933 20.414-18.763 20.36-6.769-.055-11.994-2.726-15.676-8.013-3.683-5.288-5.524-12.783-5.524-22.487 0-9.757 1.814-17.28 5.442-22.568 3.629-5.287 8.8-7.931 15.515-7.931 11.046 0 17.463 6.814 19.25 20.442h-6.092c-1.191-9.812-5.659-14.718-13.402-14.718-4.549 0-8.069 2.153-10.559 6.46-2.437 4.251-3.656 10.357-3.656 18.315 0 7.905 1.273 14.01 3.818 18.316 2.545 4.307 6.173 6.46 10.884 6.46ZM325.488 79.03h-6.579V26.698h-18.682v-5.723h44.43v5.723h-19.169V79.03ZM349.336 50.002c0-9.758 1.814-17.253 5.442-22.486 3.682-5.233 8.907-7.877 15.676-7.932 6.769-.054 11.967 2.562 15.595 7.85 3.629 5.233 5.443 12.756 5.443 22.568 0 9.812-1.814 17.362-5.443 22.65-3.628 5.233-8.826 7.822-15.595 7.768-6.769-.055-11.994-2.698-15.676-7.932-3.628-5.287-5.442-12.783-5.442-22.486Zm36.064 0c0-7.959-1.3-14.064-3.899-18.316-2.545-4.252-6.227-6.378-11.047-6.378-4.819 0-8.529 2.126-11.128 6.378-2.599 4.252-3.899 10.357-3.899 18.316 0 7.904 1.3 14.01 3.899 18.316 2.599 4.252 6.309 6.378 11.128 6.378 4.82 0 8.502-2.126 11.047-6.378 2.599-4.306 3.899-10.412 3.899-18.316ZM401.287 79.03V26.975a6 6 0 0 1 6-6h25.129a6 6 0 0 1 6 5.991l.072 52.064h-6.092l-.076-49.336a3 3 0 0 0-3-2.996h-18.941a3 3 0 0 0-3 3V79.03h-6.092ZM488.169 79.03h-39.151v-5.724h16.245V26.698h-16.245v-5.723h39.151v5.723h-16.814v46.608h16.814v5.724ZM518.108 74.696c7.094 0 11.318-4.879 12.671-14.636h6.092c-1.678 13.628-7.933 20.414-18.763 20.36-6.769-.055-11.994-2.726-15.676-8.013-3.683-5.288-5.524-12.783-5.524-22.487 0-9.757 1.814-17.28 5.442-22.568 3.629-5.287 8.8-7.931 15.515-7.931 11.046 0 17.463 6.814 19.25 20.442h-6.092c-1.191-9.812-5.659-14.718-13.402-14.718-4.549 0-8.069 2.153-10.559 6.46-2.437 4.251-3.656 10.357-3.656 18.315 0 7.905 1.273 14.01 3.818 18.316 2.545 4.307 6.173 6.46 10.884 6.46Z" fill="oklch(1 0 0)"></path>
    <path fill-rule="evenodd" d="M51.687.057h22.009c6.729 0 10.47 0 13.659.485 18.43 2.805 32.894 17.27 35.699 35.7.485 3.187.485 6.93.485 13.658v.713c0 6.728 0 10.47-.485 13.658-2.805 18.43-17.269 32.895-35.7 35.7-3.187.485-6.93.485-13.658.485h-22.01c-6.728 0-10.47 0-13.658-.485-18.43-2.805-32.894-17.27-35.7-35.7-.484-3.188-.484-6.93-.484-13.658V49.9c0-6.729 0-10.47.485-13.658 2.805-18.43 17.27-32.895 35.7-35.7C41.215.057 44.957.057 51.686.057Zm.356 6.085c-7.177 0-10.426.009-13.1.416C23.148 8.962 10.75 21.36 8.345 37.158c-.407 2.673-.415 5.921-.415 13.098 0 7.178.008 10.426.415 13.1 2.405 15.797 14.803 28.195 30.6 30.6 2.673.406 5.922.415 13.099.415H73.34c7.177 0 10.426-.009 13.099-.416 15.797-2.404 28.196-14.802 30.6-30.6.407-2.673.415-5.92.415-13.099 0-7.177-.008-10.425-.415-13.099-2.404-15.797-14.803-28.195-30.6-30.6-2.673-.406-5.922-.415-13.1-.415H52.044Z" clip-rule="evenodd" opacity=".3" fill="oklch(1 0 0)"></path>
    <path fill-rule="evenodd" d="M51.376 12.045h22.268c6.608 0 10.45 0 13.705.721a30.424 30.424 0 0 1 23.118 23.118c.722 3.256.721 7.097.721 13.705v.971c0 6.61.001 10.45-.721 13.705a30.423 30.423 0 0 1-23.118 23.118c-3.256.722-7.097.722-13.705.721H51.376c-6.608.001-10.45.001-13.705-.72a30.423 30.423 0 0 1-23.118-23.119c-.722-3.256-.721-7.096-.721-13.705v-.971c0-6.608 0-10.45.721-13.705a30.424 30.424 0 0 1 23.118-23.118c3.256-.722 7.097-.722 13.705-.721Zm.486 6.085c-7.232 0-10.354.018-12.874.577A24.34 24.34 0 0 0 20.494 37.2c-.559 2.52-.577 5.642-.577 12.874s.018 10.353.577 12.873a24.34 24.34 0 0 0 18.494 18.495c2.52.558 5.642.577 12.874.577h21.296c7.232 0 10.354-.019 12.874-.577a24.34 24.34 0 0 0 18.494-18.495c.559-2.52.577-5.64.577-12.873s-.018-10.354-.577-12.874a24.338 24.338 0 0 0-18.494-18.494c-2.52-.56-5.642-.577-12.874-.577H51.862Z" clip-rule="evenodd" opacity=".5" fill="oklch(1 0 0)"></path>
    <path fill-rule="evenodd" d="M52.481 26.28h20.104c3.123 0 5.607 0 7.626.12 2.064.122 3.842.378 5.523.975C90.776 29.168 94.751 33 96.612 37.86c.62 1.62.884 3.334 1.011 5.323.124 1.946.124 4.341.124 7.352v.192c0 3.011 0 5.405-.124 7.351-.127 1.99-.391 3.704-1.011 5.323-1.861 4.861-5.836 8.692-10.878 10.486-1.681.597-3.459.852-5.523.975-2.019.12-4.503.12-7.626.12H52.481c-3.123 0-5.608 0-7.627-.12-2.064-.123-3.842-.378-5.522-.975-5.043-1.794-9.018-5.625-10.878-10.486-.62-1.619-.885-3.333-1.012-5.323-.124-1.946-.124-4.34-.124-7.35v-.193c0-3.01 0-5.406.124-7.352.127-1.99.392-3.703 1.012-5.323 1.86-4.86 5.835-8.692 10.878-10.485 1.68-.598 3.458-.853 5.523-.975 2.018-.12 4.503-.12 7.626-.12Zm-7.25 6.012c-1.786.106-2.895.307-3.78.621-3.361 1.196-6.011 3.75-7.251 6.99-.327.853-.535 1.922-.645 3.643-.111 1.743-.112 3.956-.112 7.085 0 3.128.001 5.342.112 7.085.11 1.721.318 2.79.645 3.642 1.24 3.241 3.89 5.795 7.252 6.99.884.315 1.993.516 3.778.622 1.81.107 4.105.108 7.351.108h19.904c3.245 0 5.542 0 7.35-.108 1.785-.106 2.894-.307 3.779-.622 3.362-1.195 6.012-3.749 7.252-6.99.326-.853.535-1.92.644-3.642.112-1.743.113-3.957.113-7.085 0-3.129-.001-5.342-.113-7.085-.109-1.721-.318-2.79-.644-3.642-1.24-3.24-3.89-5.795-7.252-6.99-.885-.315-1.994-.516-3.779-.622-1.808-.107-4.105-.108-7.35-.108H52.581c-3.246 0-5.542 0-7.35.108Z" clip-rule="evenodd" opacity=".78" fill="oklch(1 0 0)"></path>
    <path fill-rule="evenodd" d="M50.045 39.018h25.13c.622-.001 1.64-.003 2.558.108 1.192.145 3.15.568 4.837 2.086 1.688 1.519 2.158 3.281 2.318 4.354.124.826.122 1.742.121 2.302v4.776c.001.56.003 1.476-.12 2.303-.16 1.072-.63 2.834-2.319 4.353-1.687 1.52-3.645 1.942-4.837 2.086-.918.111-1.936.11-2.558.11-.055-.002-.107-.002-.156-.002H50.045l-.157.001c-.622.001-1.639.002-2.557-.109-1.192-.144-3.15-.567-4.838-2.086-1.687-1.519-2.157-3.28-2.318-4.353-.123-.827-.121-1.743-.12-2.303v-4.776c-.001-.56-.003-1.476.12-2.302.16-1.073.63-2.835 2.318-4.354 1.688-1.518 3.646-1.942 4.837-2.086.92-.11 1.936-.11 2.559-.108h.156Zm-2.843 6.433c-.487.438-.487 1.145-.487 2.557v4.496c0 1.412 0 2.12.487 2.558.488.44 1.273.44 2.843.44h24.974c1.57 0 2.354 0 2.842-.44.488-.439.488-1.146.488-2.558v-4.496c0-1.412 0-2.119-.488-2.557-.488-.44-1.272-.44-2.842-.44H50.045c-1.57 0-2.355 0-2.843.44Z" clip-rule="evenodd" fill="oklch(1 0 0)"></path>
  </g>
  <defs>
    <clipPath id="a">
      <path fill="#fff" d="M0 0h536v100H0z"></path>
    </clipPath>
  </defs>
</svg>